<svg xmlns="http://www.w3.org/2000/svg" width="24.22" height="18.448" viewBox="0 0 24.22 18.448">
  <g id="Group_1" data-name="Group 1" transform="translate(-243.582 -353.719)">
    <path id="Path_4" data-name="Path 4" d="M265.673,353.719H245.711a2.133,2.133,0,0,0-2.129,2.129v14.191a2.132,2.132,0,0,0,2.129,2.128h19.962a2.132,2.132,0,0,0,2.129-2.128V355.848a2.132,2.132,0,0,0-2.129-2.129Zm-.294,1.419-9.642,9.642-9.725-9.642ZM245,369.745v-13.61l6.835,6.775Zm1,1,6.838-6.838,2.4,2.375a.709.709,0,0,0,1,0l2.337-2.336,6.8,6.8Zm20.378-1-6.8-6.8,6.8-6.8Zm0,0" fill="#fff"/>
  </g>
</svg>
