<svg xmlns="http://www.w3.org/2000/svg" width="21.787" height="25.175" viewBox="0 0 21.787 25.175">
  <g id="Group_4" data-name="Group 4" transform="translate(-244.658 -201.993)">
    <path id="Path_6" data-name="Path 6" d="M263.255,205.184a10.894,10.894,0,1,0-15.406,15.406l5.787,5.787a2.715,2.715,0,0,0,3.831,0l5.788-5.787a10.9,10.9,0,0,0,0-15.406Zm-1.043,14.362-5.788,5.788a1.239,1.239,0,0,1-1.744,0l-5.788-5.788a9.418,9.418,0,1,1,13.32,0Zm0,0" fill="#fff"/>
    <path id="Path_7" data-name="Path 7" d="M255.552,208.989a3.9,3.9,0,1,0,3.9,3.9,3.9,3.9,0,0,0-3.9-3.9Zm0,6.32a2.423,2.423,0,1,1,2.422-2.422,2.425,2.425,0,0,1-2.422,2.422Zm0,0" fill="#fff"/>
  </g>
</svg>
