<svg xmlns="http://www.w3.org/2000/svg" width="17.229" height="26.311" viewBox="0 0 17.229 26.311">
  <path id="Path_5" data-name="Path 5" d="M261.452,149.3H249.893a2.839,2.839,0,0,0-2.835,2.835v20.641a2.839,2.839,0,0,0,2.835,2.835h11.559a2.838,2.838,0,0,0,2.835-2.835V152.14a2.838,2.838,0,0,0-2.835-2.835Zm-11.559,1.542h11.559a1.294,1.294,0,0,1,1.293,1.293v15.329H248.6V152.14a1.294,1.294,0,0,1,1.293-1.293Zm11.559,23.227H249.893a1.294,1.294,0,0,1-1.293-1.293v-3.77h14.145v3.77a1.294,1.294,0,0,1-1.293,1.293Zm0,0-5.78-4.541a2.009,2.009,0,1,0,2.01,2.009,2.012,2.012,0,0,0-2.01-2.009Zm0,2.477a.467.467,0,1,1,.468-.468.468.468,0,0,1-.468.468Zm0,0" transform="translate(-247.058 -149.305)" fill="#fff"/>
</svg>
